# xmcd
#
# Track frame offsets: 
#        150
#        21365
#        31486
#        42959
#        57765
#        69679
#        81092
#        101761
#        116446
#        128767
#        149544
#        167673
#        179773
#        209919
#
# Disc length: 3102 seconds
#
# Revision: 1
# Processed by: cddbd v1.5.2PL0 Copyright (c) Steve Scherf et al.
# Submitted via: ExactAudioCopyFreeDBPlugin 1.0
#
DISCID=d30c1c0e
DTITLE=Darlene Love - The Concert of Love
DYEAR=2010
DGENRE=Rhythm and Blues
TTITLE0=Please Be Patient with Me
TTITLE1=Wait Til My Bobby Gets Home
TTITLE2=Da Doo Ron Ron
TTITLE3=Today I Met the Boy I'm Gonna Marry
TTITLE4=Fine Fine Boy
TTITLE5=Stumble and Fall
TTITLE6=I Know Where I've Been
TTITLE7=All Alone on Christmas
TTITLE8=He's Sure the Boy I Love
TTITLE9=River Deep, Mountain High
TTITLE10=Night of Peace
TTITLE11=He's a Rebel
TTITLE12=Marvelous
TTITLE13=Christmas (Baby Please Come Home)
EXTD=
EXTT0=
EXTT1=
EXTT2=
EXTT3=
EXTT4=
EXTT5=
EXTT6=
EXTT7=
EXTT8=
EXTT9=
EXTT10=
EXTT11=
EXTT12=
EXTT13=
PLAYORDER=
